<mxfile host="Electron" agent="Mozilla/5.0 (Windows NT 10.0; Win64; x64) AppleWebKit/537.36 (KHTML, like Gecko) draw.io/26.0.4 Chrome/128.0.6613.186 Electron/32.2.5 Safari/537.36" version="26.0.4">
  <diagram name="Sida-1" id="bWrgPhQgEiRSrXx8dtOs">
    <mxGraphModel dx="1272" dy="602" grid="1" gridSize="10" guides="1" tooltips="1" connect="1" arrows="1" fold="1" page="1" pageScale="1" pageWidth="827" pageHeight="1169" math="0" shadow="0">
      <root>
        <mxCell id="0" />
        <mxCell id="1" parent="0" />
        <mxCell id="whJpqRqOsMKPv7cpMrGn-1" value="" style="rounded=1;whiteSpace=wrap;html=1;" vertex="1" parent="1">
          <mxGeometry x="40" y="140" width="100" height="60" as="geometry" />
        </mxCell>
        <mxCell id="whJpqRqOsMKPv7cpMrGn-2" value="" style="rounded=1;whiteSpace=wrap;html=1;" vertex="1" parent="1">
          <mxGeometry x="40" y="220" width="100" height="60" as="geometry" />
        </mxCell>
        <mxCell id="whJpqRqOsMKPv7cpMrGn-3" value="" style="rounded=1;whiteSpace=wrap;html=1;" vertex="1" parent="1">
          <mxGeometry x="160" y="220" width="90" height="60" as="geometry" />
        </mxCell>
        <mxCell id="whJpqRqOsMKPv7cpMrGn-5" value="" style="rounded=1;whiteSpace=wrap;html=1;" vertex="1" parent="1">
          <mxGeometry x="470" y="220" width="80" height="60" as="geometry" />
        </mxCell>
        <mxCell id="whJpqRqOsMKPv7cpMrGn-13" value="" style="rounded=1;whiteSpace=wrap;html=1;" vertex="1" parent="1">
          <mxGeometry x="270" y="140" width="80" height="60" as="geometry" />
        </mxCell>
        <mxCell id="whJpqRqOsMKPv7cpMrGn-14" value="" style="rounded=1;whiteSpace=wrap;html=1;" vertex="1" parent="1">
          <mxGeometry x="160" y="140" width="90" height="60" as="geometry" />
        </mxCell>
        <mxCell id="whJpqRqOsMKPv7cpMrGn-15" value="" style="rounded=1;whiteSpace=wrap;html=1;" vertex="1" parent="1">
          <mxGeometry x="370" y="140" width="70" height="60" as="geometry" />
        </mxCell>
        <mxCell id="whJpqRqOsMKPv7cpMrGn-16" value="" style="rounded=1;whiteSpace=wrap;html=1;" vertex="1" parent="1">
          <mxGeometry x="460" y="140" width="90" height="60" as="geometry" />
        </mxCell>
        <mxCell id="whJpqRqOsMKPv7cpMrGn-17" value="" style="rounded=1;whiteSpace=wrap;html=1;" vertex="1" parent="1">
          <mxGeometry x="370" y="220" width="80" height="60" as="geometry" />
        </mxCell>
        <mxCell id="whJpqRqOsMKPv7cpMrGn-22" value="" style="rounded=1;whiteSpace=wrap;html=1;" vertex="1" parent="1">
          <mxGeometry x="270" y="220" width="90" height="60" as="geometry" />
        </mxCell>
        <mxCell id="whJpqRqOsMKPv7cpMrGn-24" value="" style="rounded=1;whiteSpace=wrap;html=1;" vertex="1" parent="1">
          <mxGeometry x="40" y="480" width="238" height="170" as="geometry" />
        </mxCell>
        <mxCell id="whJpqRqOsMKPv7cpMrGn-25" value="" style="rounded=1;whiteSpace=wrap;html=1;" vertex="1" parent="1">
          <mxGeometry x="560" y="480" width="238" height="170" as="geometry" />
        </mxCell>
        <mxCell id="whJpqRqOsMKPv7cpMrGn-26" value="" style="rounded=1;whiteSpace=wrap;html=1;" vertex="1" parent="1">
          <mxGeometry x="300" y="480" width="238" height="170" as="geometry" />
        </mxCell>
        <mxCell id="whJpqRqOsMKPv7cpMrGn-27" value="" style="rounded=1;whiteSpace=wrap;html=1;" vertex="1" parent="1">
          <mxGeometry x="40" y="300" width="238" height="170" as="geometry" />
        </mxCell>
        <mxCell id="whJpqRqOsMKPv7cpMrGn-28" value="" style="rounded=1;whiteSpace=wrap;html=1;" vertex="1" parent="1">
          <mxGeometry x="300" y="300" width="238" height="170" as="geometry" />
        </mxCell>
        <mxCell id="whJpqRqOsMKPv7cpMrGn-29" value="" style="rounded=1;whiteSpace=wrap;html=1;" vertex="1" parent="1">
          <mxGeometry x="560" y="300" width="238" height="170" as="geometry" />
        </mxCell>
      </root>
    </mxGraphModel>
  </diagram>
</mxfile>
